<?xml version="1.0" encoding="UTF-8"?>
<svg id="_レイヤー_1" data-name="レイヤー_1" xmlns="http://www.w3.org/2000/svg" width="316.533" height="100.714" version="1.1" viewBox="0 0 316.533 100.714">
  <!-- Generator: Adobe Illustrator 29.8.3, SVG Export Plug-In . SVG Version: 2.1.1 Build 3)  -->
  <g>
    <path d="M63.69.241h-17.371v27.139c-.023,7.547-5.848,13.806-13.374,14.371,7.758.262,15.152,3.355,20.784,8.696,6.358-5.986,9.962-14.332,9.959-23.065V.243M31.844,59.102h-14.476v.06h14.476c.368,0,.734-.006,1.099-.018-.363-.027-.729-.041-1.099-.042" fill="#00b3e3"/>
    <path d="M31.846,41.734h-14.476v.06h14.476c.37,0,.736-.014,1.099-.041-.365-.013-.732-.018-1.099-.018M53.728,50.447c-5.633,5.341-13.026,8.435-20.784,8.696,7.526.565,13.351,6.824,13.374,14.372v27.138h17.371v-27.138c.002-8.733-3.602-17.078-9.959-23.065" fill="#ff4338"/>
    <path d="M32.943,41.75c-.363.027-.729.041-1.099.042h-14.476v17.311h14.476c.37,0,.736.014,1.099.042,7.758-.261,15.152-3.355,20.784-8.696-5.633-5.341-13.026-8.434-20.784-8.696" fill="#002f32"/>
    <path d="M17.371.241H0v41.491h17.371V.241M17.371,59.162H0v41.552h17.371v-41.552" fill="#ffc843"/>
    <polyline points="17.372 59.102 0 59.102 0 59.162 17.372 59.162 17.372 59.102" fill="#008c3c"/>
    <polyline points="17.372 41.731 0 41.731 0 41.791 17.372 41.791 17.372 41.731" fill="#ff350f"/>
    <polyline points="17.372 41.791 0 41.791 0 59.102 17.372 59.102 17.372 41.791" fill="#00250d"/>
  </g>
  <g>
    <path d="M182.535.043c-8.098-.005-15.856,3.252-21.525,9.034,5.57,5.641,8.691,13.251,8.685,21.178h0c0-7.092,5.749-12.841,12.841-12.841s12.841,5.749,12.841,12.841v70.261h17.371V30.255c-.02-16.678-13.535-30.192-30.213-30.211" fill="#ffc843"/>
    <path d="M139.482.043c-6.25-.007-12.347,1.935-17.441,5.557,2.959,3.143,4.605,7.297,4.601,11.613v13.042c0-7.092,5.749-12.841,12.841-12.841s12.841,5.749,12.841,12.841h0c-.006-7.927,3.115-15.537,8.685-21.178C155.34,3.295,147.581.039,139.482.043" fill="#da3ab3"/>
    <path d="M161.01,9.077c-5.57,5.641-8.691,13.251-8.685,21.178v70.261h17.371V30.255c.006-7.927-3.115-15.537-8.685-21.178" fill="#da2d2f"/>
    <path d="M109.656.228h-8.685v17.371h8.299v12.657c.002-9.804,4.763-18.997,12.77-24.655-3.206-3.429-7.69-5.374-12.384-5.372" fill="#00b3e3"/>
    <path d="M122.04,5.6c-8.006,5.658-12.768,14.851-12.77,24.655v70.261h17.371V17.213c.003-4.316-1.643-8.471-4.601-11.613" fill="#00299f"/>
  </g>
  <g>
    <polyline points="250.061 0 250.061 0 250.061 17.372 257.613 17.372 257.613 100.475 274.983 100.475 274.983 58.924 257.613 58.924 257.613 41.552 274.983 41.552 274.983 17.372 250.061 17.372 250.061 0" fill="#ffc843"/>
    <path d="M287.073,0h-28.327c8.963.01,16.226,7.273,16.236,16.236v1.134h12.09c6.677,0,12.09,5.413,12.09,12.09s-5.413,12.09-12.09,12.09h-12.09v17.371h12.09c16.271,0,29.461-13.19,29.461-29.461S303.343,0,287.072,0" fill="#05ce7c"/>
    <path d="M258.747.002h-8.685v17.371h24.921v-1.134c-.01-8.963-7.273-16.226-16.236-16.236M274.983,41.552h-17.371v17.371h17.371v-17.371" fill="#05a221"/>
  </g>
</svg>